<svg width="24" height="25" viewBox="0 0 24 25" fill="none" xmlns="http://www.w3.org/2000/svg">
<path d="M4.19734 6.04602L0.596924 2.50535L2.16787 0.959991L5.76718 4.50175H22.689C22.8621 4.50174 23.0327 4.54152 23.1874 4.61792C23.342 4.69431 23.4763 4.80521 23.5797 4.94176C23.683 5.07831 23.7524 5.23673 23.7825 5.40438C23.8125 5.57202 23.8023 5.74425 23.7526 5.90732L21.0881 14.6443C21.0196 14.8694 20.879 15.0667 20.6874 15.207C20.4958 15.3473 20.2634 15.423 20.0245 15.423H6.41776V17.6072H18.6301V19.7915H5.30755C5.01311 19.7915 4.73072 19.6764 4.52251 19.4716C4.31431 19.2668 4.19734 18.989 4.19734 18.6994V6.04602ZM6.41776 6.686V13.2387H19.1985L21.1969 6.686H6.41776ZM5.86266 24.16C5.42099 24.16 4.99741 23.9874 4.6851 23.6802C4.37279 23.373 4.19734 22.9563 4.19734 22.5218C4.19734 22.0873 4.37279 21.6707 4.6851 21.3634C4.99741 21.0562 5.42099 20.8836 5.86266 20.8836C6.30433 20.8836 6.72791 21.0562 7.04021 21.3634C7.35252 21.6707 7.52797 22.0873 7.52797 22.5218C7.52797 22.9563 7.35252 23.373 7.04021 23.6802C6.72791 23.9874 6.30433 24.16 5.86266 24.16ZM19.1852 24.16C18.7435 24.16 18.3199 23.9874 18.0076 23.6802C17.6953 23.373 17.5199 22.9563 17.5199 22.5218C17.5199 22.0873 17.6953 21.6707 18.0076 21.3634C18.3199 21.0562 18.7435 20.8836 19.1852 20.8836C19.6269 20.8836 20.0504 21.0562 20.3628 21.3634C20.6751 21.6707 20.8505 22.0873 20.8505 22.5218C20.8505 22.9563 20.6751 23.373 20.3628 23.6802C20.0504 23.9874 19.6269 24.16 19.1852 24.16Z" fill="#838383"/>
</svg>
