<svg width="23" height="20" viewBox="0 0 23 20" fill="none" xmlns="http://www.w3.org/2000/svg">
<path d="M11.5921 1.65429C14.1759 -0.627558 18.1689 -0.551821 20.6581 1.90098C23.1463 4.35487 23.2321 8.2629 20.9177 10.812L11.5899 20L2.26426 10.812C-0.050095 8.2629 0.0368037 4.34837 2.52386 1.90098C5.01531 -0.548575 9.00054 -0.630804 11.5921 1.65429ZM19.1005 3.42979C17.4506 1.80469 14.7886 1.73869 13.0617 3.26425L11.5932 4.56044L10.1236 3.26533C8.39115 1.73761 5.7347 1.80469 4.08033 3.43195C2.44136 5.04407 2.35886 7.62455 3.86913 9.32971L11.591 16.937L19.3128 9.3308C20.8242 7.62455 20.7417 5.04732 19.1005 3.42979Z" fill="#838383"/>
</svg>
